<svg width="16" height="16" viewBox="0 0 16 16" fill="none" xmlns="http://www.w3.org/2000/svg">
<path d="M8.21858 1C4.9139 1 2.19515 4.00781 2.24983 6.71875C2.29671 9.08594 3.05843 11.4141 3.24983 12H3.25374L3.74202 13.6133C4.0428 14.6016 5.04671 15.1719 5.99593 14.8945C6.94124 14.6211 7.46468 13.6016 7.1678 12.6133L6.49202 10.3867C6.19124 9.40234 5.18733 8.82812 4.23812 9.10547C4.12483 9.13672 4.01546 9.18359 3.9178 9.23828C3.69124 7.89844 3.7264 6.84375 3.7264 6.84375C3.7264 4.47266 5.73421 2.53125 8.21858 2.53125C10.703 2.53125 12.7186 4.35938 12.7108 6.8125C12.6991 7.69531 12.6444 8.39844 12.4803 9.22656C12.4061 9.19531 12.3397 9.16016 12.2655 9.13672C11.3162 8.86328 10.3084 9.43359 10.0116 10.418L9.33577 12.6445C9.03499 13.6328 9.55843 14.6523 10.5076 14.9297C11.453 15.207 12.4608 14.6367 12.7616 13.6484L13.2576 12H13.2772C13.4998 11.3555 14.2498 8.80859 14.2498 6.71875C14.2498 3.89062 11.5233 1 8.21858 1Z" fill="#BC0000"/>
<path d="M3 2L14 14" stroke="#BC0000" stroke-width="1.5" stroke-linecap="round"/>
</svg>
